<svg width="38" height="38" viewBox="0 0 38 38" fill="none" xmlns="http://www.w3.org/2000/svg">
<path d="M20.0833 28.75H28.75M28.9385 13.3797C29.2221 13.0961 29.4471 12.7595 29.6006 12.389C29.7541 12.0186 29.8332 11.6215 29.8332 11.2204C29.8333 10.8194 29.7543 10.4223 29.6009 10.0518C29.4475 9.68125 29.2226 9.34457 28.9391 9.06096C28.6555 8.77736 28.3189 8.55238 27.9484 8.39886C27.5779 8.24535 27.1808 8.16631 26.7798 8.16626C26.3788 8.16621 25.9817 8.24515 25.6111 8.39857C25.2406 8.55199 24.9039 8.77689 24.6203 9.06042L10.1622 23.5218C9.91065 23.7726 9.72463 24.0814 9.62051 24.421L8.18943 29.1357C8.16143 29.2294 8.15931 29.3289 8.18331 29.4237C8.2073 29.5185 8.25651 29.605 8.32571 29.6741C8.39491 29.7432 8.48152 29.7922 8.57635 29.8161C8.67118 29.8399 8.7707 29.8377 8.86434 29.8095L13.5801 28.3795C13.9194 28.2763 14.2281 28.0914 14.4793 27.8411L28.9385 13.3797Z" stroke="white" stroke-width="2.16667" stroke-linecap="round" stroke-linejoin="round"/>
</svg>
