<svg width="112" height="26" viewBox="0 0 112 26" fill="none" xmlns="http://www.w3.org/2000/svg">
<path d="M40.0498 24L39.9277 22.4863L42.3691 21.8516C42.4017 21.6562 42.4342 21.2412 42.4668 20.6064C42.5156 19.9554 42.5482 19.0114 42.5645 17.7744L42.5889 14.7715C42.5889 13.9251 42.5563 13.1195 42.4912 12.3545C42.4261 11.5895 42.3447 10.9303 42.2471 10.377L39.7324 9.81543V8.375L45.543 6.8125L46.3486 7.47168L46.1289 9.5957L46.2266 9.62012C47.9518 7.69954 49.848 6.73926 51.915 6.73926C53.4124 6.73926 54.7308 7.31706 55.8701 8.47266C57.0257 9.61198 57.6035 11.321 57.6035 13.5996V17.8232C57.6035 18.7347 57.6198 19.5811 57.6523 20.3623C57.7012 21.1273 57.7663 21.6237 57.8477 21.8516L60.2646 22.4863L60.1426 24H51.5977L51.5244 22.4863L53.7949 21.8516C53.8275 21.5586 53.86 21.0866 53.8926 20.4355C53.9414 19.7845 53.9658 18.9788 53.9658 18.0186V14.0879C53.9658 12.444 53.5752 11.2803 52.7939 10.5967C52.0127 9.89681 51.1582 9.54688 50.2305 9.54688C48.6029 9.54688 47.2682 10.2712 46.2266 11.7197V17.5547C46.2266 18.6615 46.2428 19.5973 46.2754 20.3623C46.3242 21.1273 46.373 21.6237 46.4219 21.8516L48.8633 22.4863L48.7412 24H40.0498Z" fill="white"/>
<path d="M71.2266 24.293C68.6224 24.293 66.5228 23.4873 64.9277 21.876C63.3327 20.2646 62.5352 18.1813 62.5352 15.626C62.5352 13.8031 62.9421 12.2324 63.7559 10.9141C64.5697 9.57943 65.6439 8.55404 66.9785 7.83789C68.3294 7.10547 69.8024 6.73926 71.3975 6.73926C73.8877 6.73926 75.8896 7.53678 77.4033 9.13184C78.9333 10.7269 79.6982 12.8102 79.6982 15.3818C79.6982 17.0583 79.3239 18.5719 78.5752 19.9229C77.8265 21.2575 76.8092 22.3236 75.5234 23.1211C74.2539 23.9023 72.8216 24.293 71.2266 24.293ZM71.6172 22.291C72.8379 22.291 73.8063 21.7458 74.5225 20.6553C75.2386 19.5485 75.5967 18.0837 75.5967 16.2607C75.5967 13.9984 75.1654 12.1755 74.3027 10.792C73.4401 9.39225 72.3008 8.69238 70.8848 8.69238C69.6152 8.69238 68.598 9.25391 67.833 10.377C67.068 11.4837 66.6855 12.973 66.6855 14.8447C66.6855 17.0094 67.1494 18.7917 68.0771 20.1914C69.0049 21.5911 70.1849 22.291 71.6172 22.291Z" fill="white"/>
<path d="M95.1035 21.3145C94.6315 22.2585 93.9398 22.9909 93.0283 23.5117C92.1169 24.0326 91.1322 24.293 90.0742 24.293C88.4303 24.293 87.0713 23.8047 85.9971 22.8281C84.9391 21.8516 84.4102 20.3623 84.4102 18.3604L84.5078 9.20508H81.7734V8.25293L87.3398 3.44336H88.2676L88.1943 8.25293L88.1211 17.8232C88.1211 20.2809 89.2035 21.5098 91.3682 21.5098C92.4749 21.5098 93.4596 21.1029 94.3223 20.2891L95.1035 21.3145ZM86.4854 9.20508V7.08105H93.9561V9.20508H86.4854Z" fill="white"/>
<path d="M104.723 24.293C103.16 24.293 101.752 23.943 100.499 23.2432C99.262 22.5433 98.2773 21.5586 97.5449 20.2891C96.8288 19.0195 96.4707 17.5303 96.4707 15.8213C96.4707 13.9821 96.8613 12.3789 97.6426 11.0117C98.4238 9.64453 99.4411 8.58659 100.694 7.83789C101.964 7.08919 103.323 6.72298 104.771 6.73926C106.936 6.75553 108.596 7.4554 109.752 8.83887C110.924 10.2061 111.51 12.0615 111.51 14.4053V15.1865H99.6689V13.3555H108.531L108.019 14.0146V13.0381C108.019 11.6058 107.701 10.499 107.066 9.71777C106.432 8.93652 105.561 8.5459 104.454 8.5459C103.38 8.5459 102.428 9.0179 101.598 9.96191C100.784 10.8896 100.377 12.2975 100.377 14.1855V14.7715C100.377 16.806 100.89 18.4092 101.915 19.5811C102.957 20.7529 104.316 21.3389 105.992 21.3389C106.904 21.3389 107.717 21.168 108.434 20.8262C109.15 20.4844 109.85 19.8984 110.533 19.0684L111.583 20.0449C110.834 21.4772 109.874 22.5433 108.702 23.2432C107.53 23.943 106.204 24.293 104.723 24.293Z" fill="white"/>
<path d="M14.0833 22.75H22.75M22.9385 7.37967C23.2221 7.09614 23.4471 6.75952 23.6006 6.38904C23.7541 6.01855 23.8332 5.62146 23.8332 5.22043C23.8333 4.8194 23.7543 4.42229 23.6009 4.05177C23.4475 3.68125 23.2226 3.34457 22.9391 3.06096C22.6555 2.77736 22.3189 2.55238 21.9484 2.39886C21.5779 2.24535 21.1808 2.16631 20.7798 2.16626C20.3788 2.16621 19.9817 2.24515 19.6111 2.39857C19.2406 2.55199 18.9039 2.77689 18.6203 3.06042L4.16218 17.5218C3.91065 17.7726 3.72463 18.0814 3.62051 18.421L2.18943 23.1357C2.16143 23.2294 2.15931 23.3289 2.18331 23.4237C2.2073 23.5185 2.25651 23.605 2.32571 23.6741C2.39491 23.7432 2.48152 23.7922 2.57635 23.8161C2.67118 23.8399 2.7707 23.8377 2.86434 23.8095L7.58009 22.3795C7.91936 22.2763 8.22811 22.0914 8.47926 21.8411L22.9385 7.37967Z" stroke="white" stroke-width="2.16667" stroke-linecap="round" stroke-linejoin="round"/>
</svg>
