<svg width="251" height="50" viewBox="0 0 251 50" fill="none" xmlns="http://www.w3.org/2000/svg">
<path d="M8.74173 45.5096C8.73334 45.4306 8.72495 45.3516 7.82191 42.4902C6.91887 39.6288 5.12144 33.9874 4.11579 30.3306C2.71366 25.2322 2.90611 22.4951 3.23864 20.3257C3.54412 18.3327 4.58923 16.3437 5.55814 14.4674C6.22694 13.1723 8.27094 11.5949 11.1473 9.47615C13.4168 7.8044 15.0827 7.23039 16.2622 6.9841C17.9029 6.64149 19.4085 6.92843 20.4691 7.81933C23.4945 10.3607 23.4873 14.1506 25.0095 18.2597C26.3651 21.9192 27.0144 25.3196 27.5498 27.7164C28.1785 30.5312 29.6705 33.6661 31.1783 36.4887C32.8125 39.548 35.3802 40.3326 36.769 40.8376C37.0455 40.9381 37.3042 40.9418 37.5408 40.8779C38.0421 40.7426 38.8264 39.3396 40.2321 36.2984C42.3345 31.7499 43.0772 28.3907 43.2722 27.2054C44.0139 23.5315 44.2536 21.252 44.518 15.3856C44.6088 13.9488 44.7535 13.0546 44.8772 11.8939" stroke="white" stroke-width="6" stroke-linecap="round"/>
<path d="M61.8352 40V17.3877H67.9152V21.3331H68.1507C68.5629 19.9296 69.2549 18.8697 70.2265 18.1532C71.1981 17.4269 72.3169 17.0638 73.583 17.0638C73.8971 17.0638 74.2356 17.0834 74.5988 17.1227C74.9619 17.162 75.2809 17.2159 75.5557 17.2846V22.8494C75.2613 22.7611 74.854 22.6825 74.3338 22.6138C73.8136 22.5451 73.3376 22.5108 72.9058 22.5108C71.9832 22.5108 71.1588 22.712 70.4326 23.1144C69.7161 23.5069 69.1469 24.0565 68.7249 24.7632C68.3127 25.4698 68.1066 26.2844 68.1066 27.207V40H61.8352ZM88.0506 40.4416C85.7246 40.4416 83.7225 39.9706 82.0442 39.0284C80.3758 38.0764 79.0901 36.7318 78.1872 34.9947C77.2842 33.2477 76.8328 31.1818 76.8328 28.7969C76.8328 26.4709 77.2842 24.4295 78.1872 22.6727C79.0901 20.9159 80.361 19.5468 82 18.5654C83.6489 17.584 85.5823 17.0933 87.8003 17.0933C89.2921 17.0933 90.6809 17.3337 91.9665 17.8146C93.262 18.2857 94.3907 18.9972 95.3525 19.9492C96.3241 20.9012 97.0798 22.0986 97.6196 23.5413C98.1594 24.9742 98.4293 26.6525 98.4293 28.5761V30.2985H79.3354V26.412H92.526C92.526 25.5091 92.3297 24.7092 91.9371 24.0124C91.5445 23.3156 90.9998 22.7709 90.303 22.3783C89.616 21.9759 88.8161 21.7747 87.9034 21.7747C86.9514 21.7747 86.1074 21.9955 85.3713 22.4372C84.645 22.869 84.0758 23.453 83.6636 24.189C83.2514 24.9153 83.0404 25.725 83.0306 26.6181V30.3132C83.0306 31.4321 83.2367 32.3988 83.6489 33.2134C84.0709 34.028 84.6646 34.6561 85.4302 35.0977C86.1957 35.5394 87.1035 35.7602 88.1537 35.7602C88.8505 35.7602 89.4884 35.662 90.0675 35.4658C90.6465 35.2695 91.1421 34.975 91.5543 34.5825C91.9665 34.1899 92.2806 33.709 92.4965 33.1398L98.2968 33.5225C98.0024 34.9162 97.3988 36.1331 96.4861 37.1735C95.5831 38.204 94.4152 39.0087 92.9823 39.5878C91.5592 40.157 89.9153 40.4416 88.0506 40.4416ZM122.996 17.3877L115.09 40H108.024L100.119 17.3877H106.743L111.439 33.5667H111.675L116.356 17.3877H122.996ZM131.888 33.4931L131.902 25.9704H132.815L140.058 17.3877H147.257L137.526 28.7527H136.039L131.888 33.4931ZM126.205 40V9.85024H132.477V40H126.205ZM140.338 40L133.684 30.1513L137.865 25.7201L147.684 40H140.338ZM164.835 30.3721V17.3877H171.106V40H165.085V35.8927H164.849C164.339 37.2176 163.49 38.2825 162.302 39.0873C161.125 39.892 159.687 40.2944 157.989 40.2944C156.478 40.2944 155.148 39.9509 154 39.2639C152.851 38.5769 151.953 37.6004 151.305 36.3343C150.668 35.0683 150.344 33.552 150.334 31.7854V17.3877H156.605V30.6665C156.615 32.0013 156.973 33.0563 157.68 33.8317C158.387 34.607 159.334 34.9947 160.521 34.9947C161.277 34.9947 161.984 34.8229 162.641 34.4794C163.299 34.1261 163.829 33.6059 164.231 32.9189C164.643 32.2319 164.844 31.383 164.835 30.3721Z" fill="#DFDFDF"/>
<path d="M181.25 40.2711C180.647 40.2711 180.129 40.0551 179.697 39.6231C179.265 39.1911 179.049 38.6736 179.049 38.0704C179.049 37.4673 179.265 36.9497 179.697 36.5178C180.129 36.0858 180.647 35.8698 181.25 35.8698C181.853 35.8698 182.371 36.0858 182.803 36.5178C183.235 36.9497 183.451 37.4673 183.451 38.0704C183.451 38.4698 183.349 38.8366 183.145 39.1707C182.949 39.5049 182.684 39.7739 182.35 39.9776C182.024 40.1732 181.657 40.2711 181.25 40.2711ZM195.719 40.4667C194.154 40.4667 192.773 40.0714 191.574 39.2808C190.376 38.482 189.439 37.3573 188.763 35.9065C188.086 34.4476 187.748 32.7237 187.748 30.735C187.748 28.7626 188.086 27.051 188.763 25.6003C189.439 24.1495 190.38 23.0288 191.587 22.2382C192.793 21.4476 194.187 21.0523 195.768 21.0523C196.99 21.0523 197.956 21.2561 198.665 21.6636C199.383 22.063 199.929 22.5194 200.304 23.0329C200.687 23.5382 200.984 23.9539 201.196 24.2799H201.441V15.0373H204.326V40.0754H201.538V37.1902H201.196C200.984 37.5325 200.683 37.9645 200.291 38.4861C199.9 38.9996 199.342 39.4601 198.616 39.8676C197.891 40.267 196.925 40.4667 195.719 40.4667ZM196.11 37.8748C197.268 37.8748 198.246 37.5733 199.044 36.9701C199.843 36.3588 200.45 35.5153 200.866 34.4394C201.282 33.3554 201.489 32.1043 201.489 30.6861C201.489 29.2843 201.286 28.0576 200.878 27.0062C200.471 25.9466 199.868 25.1235 199.069 24.5366C198.27 23.9416 197.284 23.6441 196.11 23.6441C194.888 23.6441 193.869 23.9579 193.054 24.5855C192.247 25.205 191.64 26.0485 191.232 27.1162C190.833 28.1758 190.633 29.3658 190.633 30.6861C190.633 32.0228 190.837 33.2372 191.244 34.3294C191.66 35.4134 192.271 36.2773 193.078 36.9212C193.893 37.557 194.904 37.8748 196.11 37.8748ZM217.884 40.4667C216.075 40.4667 214.514 40.0673 213.202 39.2685C211.898 38.4617 210.891 37.3369 210.182 35.8943C209.481 34.4435 209.131 32.7563 209.131 30.8328C209.131 28.9093 209.481 27.214 210.182 25.747C210.891 24.2717 211.877 23.1225 213.141 22.2993C214.412 21.468 215.895 21.0523 217.591 21.0523C218.569 21.0523 219.535 21.2153 220.488 21.5413C221.442 21.8673 222.31 22.3971 223.092 23.1307C223.875 23.8561 224.498 24.8178 224.963 26.0159C225.427 27.214 225.66 28.6893 225.66 30.4416V31.6642H211.184V29.1701H222.725C222.725 28.1106 222.514 27.1651 222.09 26.3338C221.674 25.5024 221.079 24.8463 220.305 24.3655C219.539 23.8846 218.634 23.6441 217.591 23.6441C216.441 23.6441 215.447 23.9294 214.608 24.4999C213.776 25.0623 213.136 25.7959 212.688 26.7006C212.24 27.6053 212.016 28.5752 212.016 29.6103V31.273C212.016 32.6911 212.26 33.8933 212.749 34.8795C213.247 35.8576 213.935 36.6034 214.815 37.1168C215.696 37.6222 216.719 37.8748 217.884 37.8748C218.642 37.8748 219.327 37.7689 219.938 37.557C220.557 37.3369 221.091 37.0109 221.54 36.5789C221.988 36.1388 222.334 35.5927 222.579 34.9407L225.366 35.7231C225.073 36.6686 224.58 37.4999 223.887 38.2171C223.194 38.9262 222.338 39.4805 221.32 39.8798C220.301 40.2711 219.156 40.4667 217.884 40.4667ZM244.833 21.2968L237.888 40.0754H234.954L228.01 21.2968H231.14L236.323 36.261H236.519L241.703 21.2968H244.833Z" fill="#DFDFDF"/>
</svg>
